PathFileType	4	(X/Y/Z)	Patient4_TMGait_0pt4_02_right_24.trc.trc
DataRate	CameraRate	NumFrames	NumMarkers	Units	OrigDataRate	OrigDataStartFrame	OrigNumFrames
71.794871794872	71.794871794872	5	33	mm	71.794871794872	124	       141
Frame#	Time	Sacral			L.Shoulder			Chest			R.Shoulder			Neck			R.ASIS			L.ASIS			R.Thigh.Superior			R.Thigh.Lateral			R.Thigh.Inferior			R.Patella			L.Thigh.Superior			L.Thigh.Lateral			L.Thigh.Inferior			L.Patella			L.Shank.Superior			L.Shank.Lateral			L.Shank.Inferior			R.Shank.Superior			R.Shank.Lateral			R.Shank.Inferior			R.Heel			R.Midfoot.Superior			R.Midfoot.Lateral			R.Toe			L.Heel			L.Midfoot.Lateral			L.Midfoot.Superior			L.Toe			L.Elbow			L.Wrist			R.Elbow			R.Wrist			
		X1	Y1	Z1	X2	Y2	Z2	X3	Y3	Z3	X4	Y4	Z4	X5	Y5	Z5	X6	Y6	Z6	X7	Y7	Z7	X8	Y8	Z8	X9	Y9	Z9	X10	Y10	Z10	X11	Y11	Z11	X12	Y12	Z12	X13	Y13	Z13	X14	Y14	Z14	X15	Y15	Z15	X16	Y16	Z16	X17	Y17	Z17	X18	Y18	Z18	X19	Y19	Z19	X20	Y20	Z20	X21	Y21	Z21	X22	Y22	Z22	X23	Y23	Z23	X24	Y24	Z24	X25	Y25	Z25	X26	Y26	Z26	X27	Y27	Z27	X28	Y28	Z28	X29	Y29	Z29	X30	Y30	Z30	X31	Y31	Z31	X32	Y32	Z32	X33	Y33	Z33	

124	33.213214285714	887.030998254766	1005.258000246142	421.757086518910	1102.492356905077	1424.261374787940	248.782896973547	1182.402670176686	1357.930804249509	422.921170796623	1079.419265784020	1440.814418193640	582.408968863152	1082.057655102802	1491.268565628280	400.018178738324	1105.149475291008	938.130209215487	559.514875044623	1114.920172992823	960.787540131331	283.172890666290	1164.859307430708	749.578842554946	536.894234161575	1102.305678083870	634.596199000519	606.194127527527	1189.567195533395	587.420345301838	530.290796891878	1211.955261491861	509.295528176372	544.942772480654	1128.425327953159	737.194270933496	309.811390218987	1023.256202414311	634.373669007566	243.322759099392	1090.826254923674	545.478765734739	307.362492437654	1078.812560642560	477.586101159581	315.783549491758	1046.444666002044	409.541141092322	306.798914141207	944.734308252896	304.940838226632	255.253032384448	983.928607852137	189.116485439703	327.197330112875	1196.586764636975	423.301215124630	557.485126809128	1145.018171316392	311.766852292944	624.565882610525	1213.432056529658	225.115195049594	573.710584529903	1119.480840487731	45.180604286286	554.006855431892	1286.971010416869	108.555985150188	583.532892435110	1207.167383519732	40.176168031890	623.150323404584	1411.034611848422	65.025175575510	601.933292689821	846.286849337947	39.305394689423	371.939565775786	917.641905692808	35.133604593084	289.140302107791	1002.282671244378	95.779253456450	314.555122790411	1130.128497640272	41.356627081888	282.635527817702	1135.049927083996	1083.059158508830	110.047311487779	1340.870134340728	926.351161862079	155.755411283913	955.472352011750	1119.825070419983	702.330089025172	1009.395659816775	863.754895584774	719.439445540740	
125	33.227142857143	887.760546357424	1003.660853287031	424.777666715355	1100.115096323496	1424.081403145510	252.639593827877	1181.102571337780	1357.978561690933	426.434972431965	1078.023124306827	1439.822963387827	586.422986748404	1079.849021269142	1490.700173820374	404.174622756174	1106.672032208867	936.940963519534	561.447812896323	1115.880070965016	960.931251045276	285.311187609201	1167.405322656710	748.113372431981	538.310124187246	1103.489234548431	633.085132055799	606.743794079082	1190.721905490155	586.357119675908	530.655320223116	1212.118219528821	507.122560889976	544.288153053371	1128.128357904103	736.166061749809	311.019141754772	1021.520720847292	634.117417161066	244.975444548247	1088.454913909896	544.576346777745	308.595704945912	1075.966802005295	476.603902759600	316.974299169392	1043.058255548284	408.817596359737	307.869001686132	940.363080245971	305.103838034824	256.185603501987	978.913632652458	188.696828489745	327.658833808494	1195.367212962000	420.238834561941	556.791063183306	1141.306392733069	310.014796020949	624.368425877366	1206.769285994628	221.439818184988	572.738660405271	1107.461581078746	43.977707143193	554.712322687599	1276.486005668828	104.257364909678	582.049565016097	1195.476385817824	38.442314222413	623.559327849721	1400.156916250936	58.408044267850	600.506226206064	840.625174515285	39.082412441241	371.976958983445	911.989840435677	35.008315502503	289.193860556067	996.637473527829	95.717968224587	314.660319433381	1124.502459082668	41.365613965067	282.622037250252	1131.098004399196	1082.218067181098	114.307995673312	1334.544930114041	921.384181218490	157.197637475216	957.367774756058	1117.758174666547	706.939176809663	1017.389569753430	863.122019552203	724.762959619171	
126	33.241071428571	888.547491525729	1002.220825167138	427.872457393552	1097.870915632421	1424.108316568608	256.663592426479	1179.901428921976	1358.152807954743	430.088273839639	1076.738953711899	1438.885643744462	590.608250595400	1077.743373027242	1490.263883874192	408.545629256929	1108.276299890649	936.111199716287	563.509180571722	1116.956141427282	961.096027412692	287.597765674809	1170.093856620675	747.048160656412	539.726452077759	1105.081350847323	631.979219599927	607.379160503283	1192.129211919253	585.787201032194	530.883694628337	1212.551306267951	505.452603471995	543.510222502832	1127.933243778988	735.099316094063	312.537310103849	1019.991551474130	633.819699480961	246.898093462295	1086.337451666665	543.651314533491	310.140603560299	1073.417857285317	475.523792074160	318.415253542903	1039.851270353119	408.046213898839	309.163628111955	936.094083933693	305.324956602526	257.336900495360	973.939121435980	188.250429520898	328.218491236672	1194.701004647680	417.748716323204	556.187620293048	1138.589024115830	308.716689889881	624.349593798082	1201.222223502837	218.474025743002	571.809397245199	1097.132018487566	43.052028445455	555.414493487115	1267.357070254194	101.085424832577	580.638178275728	1185.530768717896	37.279428302689	623.889998634200	1390.783132536727	53.527241667187	599.027550443558	834.945548529023	38.823775241216	372.029931833266	906.342270456895	34.845676639242	289.282884698813	991.000179863380	95.637244575658	314.797128375438	1118.898352338437	41.343361306341	282.601702274380	1126.727088074847	1081.537086437634	118.772301492686	1327.461915214241	916.168949272611	158.058746775756	959.665974143340	1115.693030064813	711.758691247776	1025.828283283312	862.655934514493	730.320247153255	
127	33.255000000000	889.359264927698	1000.988435760813	431.026810356302	1095.843827980616	1424.349081199411	260.811780387152	1178.808756516155	1358.442423806916	433.859157569682	1075.563452736263	1438.031580469929	594.913300305295	1075.773410409319	1489.971066162151	413.073108572172	1109.879714577891	935.675425365236	565.778090764372	1118.066958224042	961.251253367759	290.085367420304	1172.834029534539	746.484862818924	541.163559992484	1107.111293171946	631.312088825538	608.147299222047	1193.826376797099	585.740094955145	531.058053580889	1213.302321455277	504.301243905300	542.779004301746	1127.825657449195	734.023498592305	314.435226728986	1018.750957178992	633.469078810299	249.107142256041	1084.622538891571	542.710448636901	311.998409628849	1071.344895852711	474.322939578572	320.075252852134	1036.948203369724	407.216379596456	310.665279700847	932.011626046816	305.637430348237	258.711593886788	969.056086054322	187.795059959212	328.861553792439	1194.590129782715	415.850315102891	555.772530840089	1136.839116486872	307.869126994328	624.540729996940	1196.790288974137	216.237904914057	570.996847002391	1088.529939113156	42.420771470400	556.024727598947	1259.608524505490	99.013554050490	579.412900779142	1177.300279429385	36.634548104358	624.126710338717	1382.902249775522	50.328351448314	597.683612523623	829.256557872985	38.598118549882	372.096432379157	900.708293984260	34.675194535090	289.408791374156	985.396329163045	95.543435889345	314.955494846131	1113.321883126868	41.273664799751	282.572041063418	1121.974892391502	1081.041962344710	123.416575120907	1319.589228180051	910.748143848474	158.369884584121	962.376099981054	1113.667806932255	716.750240560812	1034.683874937237	862.405011259566	736.076538593478	
128	33.268928571429	890.168791141792	999.979712233362	434.253597076316	1094.084207084747	1424.782522119708	265.041076774623	1177.821705916406	1358.823007592976	437.724801606382	1074.482493635292	1437.276651790467	599.290052454017	1073.951014941483	1489.815012460373	417.695254287966	1111.422523901978	935.621213946481	568.328496932547	1119.112113206059	961.361383627872	292.825218078718	1175.553478740311	746.450352758553	542.657441063191	1109.562712259746	631.058395555276	609.098038268366	1195.816414990634	586.156170341002	531.289522956782	1214.370146256972	503.599776185092	542.263634722303	1127.803979524125	732.978426706551	316.737096381238	1017.885873338246	633.056330322361	251.594926577759	1083.476817791004	541.765758750880	314.130897905475	1069.949727735379	472.985179493421	321.884552233121	1034.498640636195	406.322314790082	312.327459424245	928.221581932932	306.084052448639	260.295718132106	964.333970898455	187.365903257477	329.560863971593	1194.953769337492	414.478532314904	555.611548940804	1135.904254418334	307.408260373826	624.955229143965	1193.316006852295	214.656008007854	570.352201996580	1081.453102813206	42.059732220165	556.497483139073	1253.071834129403	97.892592627830	578.445769539539	1170.536463015136	36.403419503496	624.275265267589	1376.307456345838	48.571175698820	596.593954154953	823.577190019962	38.516467369762	372.171866139242	895.100884173718	34.552777301201	289.568271193124	979.863519576213	95.452855369765	315.117517641858	1107.774887737162	41.142956619244	282.530525820377	1116.887748240278	1080.740526320453	128.202361995511	1310.904671473254	905.171755287213	158.192107396844	965.484156198628	1111.714196747758	721.884905720416	1043.943166318609	862.418767104974	741.997263841989	
